<?xml version="1.0" encoding="utf-8"?>
<!-- Generator: Adobe Illustrator 18.1.1, SVG Export Plug-In . SVG Version: 6.00 Build 0)  -->
<svg version="1.1" id="Layer_1" xmlns="http://www.w3.org/2000/svg" xmlns:xlink="http://www.w3.org/1999/xlink" x="0px" y="0px"
	 viewBox="0 0 303.2 85" enable-background="new 0 0 303.2 85" xml:space="preserve">
<rect x="0" y="0" fill="#F04F23" width="303.2" height="85"/>
<g>
	<g>
		<path fill="#FFFFFF" d="M20.5,22.4L24,50.2h0.2l7.5-19.4h1.6l7.5,19.4H41l3.6-27.8l5.9,0.6l-6.5,40.9h-2l-9.4-24.3l-9.4,24.3h-2
			L14.6,23L20.5,22.4z"/>
		<path fill="#FFFFFF" d="M68.8,23.4h15.1c12.8,0,18.6,4.6,18.6,19.3c0,12.4-2.4,20.2-18.6,20.2H68.8v-4.5h4.7V27.9h-4.7V23.4z
			 M79.3,58.3h6.2c7.6,0,11-3.8,11-15.2c0-12.1-4-15.2-11.2-15.2h-6V58.3z"/>
		<path fill="#FFFFFF" d="M152.7,55.3c-3.6,5-8,8.3-15,8.3c-13.2,0-17.3-10.6-17.3-20.4c0-15.8,9.5-20.5,16.8-20.5
			c7,0,11.1,3.2,14.3,8.4l-5.3,2.4c-1.9-3.2-4.5-6-8.9-6c-9,0-10.8,9.6-10.8,15.6c0,6.1,1.6,15.7,10.8,15.7c5.3,0,8-2.8,10.7-6.4
			L152.7,55.3z"/>
	</g>
</g>
<g>
	<g>
		<path fill="#A6DBDC" d="M245.4,43.7c0,6.6,1.3,21-13.1,21c-14.3,0-13.1-13.9-13.1-21c0-9.6-0.6-21.1,13.1-21.1
			C247.2,22.6,245.4,39.1,245.4,43.7z M224.2,43.7c0,16.1,3.4,17.1,8.1,17.1c5.4,0,8.1-1.9,8.1-17.1c0-15.9-3.2-17.2-8.1-17.2
			C223.5,26.5,224.2,35.5,224.2,43.7z"/>
		<path fill="#A6DBDC" d="M265.9,57.8c2.2,1.7,4.6,3.1,7.6,3.1c8.5,0,9-9.5,9.2-14.9c-2.7,2.1-5.6,3.3-9.3,3.3
			c-8.8,0-12.1-6.3-12.1-13.1c0-7.2,4.4-13.5,13.4-13.5c12.1,0,12.8,12.8,12.8,20.6c0,8.4-1.2,21.5-14,21.5c-3.8,0-7.6-1.3-10.4-3.6
			L265.9,57.8z M274.5,26.5c-5.8,0-8.2,4.4-8.2,9.5c0,4.7,1.5,9.4,7.9,9.4c3.3,0,6.2-2,8.6-3.9C282.7,28.8,278.9,26.5,274.5,26.5z"
			/>
	</g>
</g>
<g>
	<path fill="#A6DBDC" d="M186.5,14.7l-11.4,55.4H172l4.3-20.6h-9.4l0.6-2.7h9.4l2-9.6h-9.4l0.6-2.7h9.4l4.1-19.7H186.5z M184.6,70.1
		l11.6-55.4h3.1l-4.1,19.7h9.5l-0.6,2.7h-9.4l-2,9.6h9.4l-0.6,2.7h-9.4l-4.4,20.6H184.6z"/>
</g>
<g>
	<g>
		<polygon fill="#FFFFFF" points="183.4,14.5 179.3,34.3 169.9,34.3 169.3,37 178.7,37 176.8,46.6 167.4,46.6 166.8,49.3 
			176.2,49.3 171.9,69.9 175.1,69.9 186.5,14.5 		"/>
	</g>
</g>
</svg>
